<svg width="40" height="40" viewBox="0 0 40 40" fill="none" xmlns="http://www.w3.org/2000/svg">
<path d="M1.70777 27.7356C1.48675 27.7356 1.27479 27.8234 1.11851 27.9796C0.962233 28.1359 0.874435 28.3479 0.874435 28.5689C0.874435 28.7899 0.962233 29.0019 1.11851 29.1581C1.27479 29.3144 1.48675 29.4022 1.70777 29.4022H21.7078V27.7356H1.70777ZM39.12 18.8967H25.2311V20.5633H39.12C39.341 20.5633 39.553 20.4755 39.7093 20.3193C39.8655 20.163 39.9533 19.951 39.9533 19.73C39.9533 19.509 39.8655 19.297 39.7093 19.1407C39.553 18.9845 39.341 18.8967 39.12 18.8967Z" fill="#1A2126"/>
<path d="M25.7955 10.6934L32.1755 4.31335L38.5566 10.6934V18.8967H25.7955V10.6934Z" fill="#FFE8B6"/>
<path d="M38.5567 11.6056C38.3234 11.6056 38.0901 11.5167 37.9123 11.339L32.1767 5.6034L26.4412 11.339C26.2703 11.5099 26.0384 11.6059 25.7967 11.6059C25.555 11.6059 25.3232 11.5099 25.1523 11.339C24.9814 11.168 24.8853 10.9362 24.8853 10.6945C24.8853 10.4528 24.9814 10.221 25.1523 10.0501L31.5323 3.67007C31.6169 3.5854 31.7174 3.51824 31.8279 3.47242C31.9385 3.4266 32.057 3.40302 32.1767 3.40302C32.2964 3.40302 32.4149 3.4266 32.5255 3.47242C32.6361 3.51824 32.7366 3.5854 32.8212 3.67007L39.2012 10.0501C39.3287 10.1775 39.4155 10.3399 39.4507 10.5167C39.4859 10.6934 39.4678 10.8767 39.3988 11.0432C39.3299 11.2098 39.213 11.3521 39.0631 11.4522C38.9132 11.5523 38.737 11.6057 38.5567 11.6056Z" fill="#1A2126"/>
<path d="M30.3533 12.5167H33.9988V18.8967H30.3533V12.5167Z" fill="#7B3D3D"/>
<path d="M27.6189 12.5167H29.4423V14.34H27.6189V12.5167ZM34.91 12.5167H36.7334V14.34H34.91V12.5167ZM34.91 15.2511H36.7334V17.0744H34.91V15.2511Z" fill="#6B94A6"/>
<path d="M11.7077 5.84332L2.48994 15.0611V27.7355H20.9255V15.0611L11.7077 5.84332Z" fill="#FFE8B6"/>
<path d="M22.0777 17.3656C21.7833 17.3656 21.4877 17.2534 21.2633 17.0278L11.7077 7.47226L2.15215 17.0278C2.04519 17.1348 1.91822 17.2196 1.77848 17.2775C1.63874 17.3354 1.48896 17.3652 1.3377 17.3652C1.18645 17.3652 1.03667 17.3354 0.89693 17.2775C0.757187 17.2196 0.630214 17.1348 0.523259 17.0278C0.416305 16.9209 0.331464 16.7939 0.273581 16.6541C0.215698 16.5144 0.185905 16.3646 0.185905 16.2134C0.185905 16.0621 0.215698 15.9123 0.273581 15.7726C0.331464 15.6328 0.416305 15.5059 0.523259 15.3989L10.8933 5.02892C11.0002 4.92189 11.1271 4.83697 11.2669 4.77904C11.4066 4.7211 11.5564 4.69128 11.7077 4.69128C11.859 4.69128 12.0088 4.7211 12.1485 4.77904C12.2883 4.83697 12.4152 4.92189 12.5221 5.02892L22.8921 15.3989C23.0537 15.5599 23.1638 15.7651 23.2086 15.9888C23.2533 16.2124 23.2306 16.4442 23.1433 16.6549C23.0561 16.8656 22.9082 17.0456 22.7185 17.1721C22.5288 17.2987 22.3057 17.366 22.0777 17.3656Z" fill="#1A2126"/>
<path d="M9.40331 17.3655H14.0122V27.7355H9.40331V17.3655Z" fill="#7B3D3D"/>
<path d="M4.79443 17.3655H8.25109V20.8222H4.79443V17.3655ZM4.79443 21.9744H8.25109V25.4311H4.79443V21.9744Z" fill="#6B94A6"/>
<path d="M23.8634 9.37555L12.1712 21.1056V37.2378H35.5556V21.1056L23.8634 9.37555Z" fill="#FFE8B6"/>
<path d="M36.6667 36.6755H11.1111C10.4978 36.6755 10 37.1744 10 37.79C10 38.4055 10.4978 38.9044 11.1111 38.9044H36.6667C37.28 38.9044 37.7778 38.4055 37.7778 37.79C37.7778 37.1744 37.28 36.6755 36.6667 36.6755Z" fill="#66757F"/>
<path d="M23.3334 21.1111H24.4445V36.6667H23.3334V21.1111Z" fill="#FFE8B6"/>
<path d="M15.5556 30H20.0001V36.6667H15.5556V30Z" fill="#964D4D"/>
<path d="M15.5556 22.2222H20.0001V26.6666H15.5556V22.2222ZM27.7778 22.2222H32.2223V26.6666H27.7778V22.2222ZM27.7778 29.9999H32.2223V34.4444H27.7778V29.9999Z" fill="#6B94A6"/>
<path d="M23.3334 21.7811C23.1134 21.7816 22.8983 21.7167 22.7153 21.5947C22.5322 21.4727 22.3896 21.2991 22.3054 21.0959C22.2212 20.8926 22.1994 20.669 22.2425 20.4533C22.2857 20.2376 22.3919 20.0396 22.5478 19.8845L29.77 12.6622L31.3412 14.2333L24.1189 21.4556C24.016 21.5591 23.8936 21.6412 23.7588 21.6971C23.6239 21.7529 23.4793 21.7815 23.3334 21.7811Z" fill="#66757F"/>
<path d="M36.5378 21.7812C36.2433 21.7812 35.9478 21.669 35.7233 21.4434L23.8633 9.5834L12.0033 21.4434C11.8964 21.5504 11.7694 21.6352 11.6296 21.6931C11.4899 21.751 11.3401 21.7808 11.1889 21.7808C11.0376 21.7808 10.8878 21.751 10.7481 21.6931C10.6084 21.6352 10.4814 21.5504 10.3744 21.4434C10.2675 21.3364 10.1826 21.2095 10.1247 21.0697C10.0669 20.93 10.0371 20.7802 10.0371 20.629C10.0371 20.4777 10.0669 20.3279 10.1247 20.1882C10.1826 20.0484 10.2675 19.9215 10.3744 19.8145L23.0489 7.14007C23.1558 7.03303 23.2827 6.94812 23.4225 6.89018C23.5622 6.83225 23.712 6.80243 23.8633 6.80243C24.0146 6.80243 24.1644 6.83225 24.3041 6.89018C24.4439 6.94812 24.5708 7.03303 24.6778 7.14007L37.3522 19.8145C37.5138 19.9754 37.6239 20.1807 37.6686 20.4043C37.7133 20.628 37.6906 20.8598 37.6034 21.0705C37.5161 21.2812 37.3683 21.4612 37.1785 21.5877C36.9888 21.7143 36.7658 21.7816 36.5378 21.7812Z" fill="#66757F"/>
<path d="M22.8 21.8H23.8V36.6501H22.8V21.8Z" fill="#D5C39C"/>
</svg>
