<svg width="36" height="35" viewBox="0 0 36 35" fill="none" xmlns="http://www.w3.org/2000/svg">
<ellipse cx="17.5484" cy="17" rx="17.5484" ry="17" fill="#81B4C5"/>
<path d="M11.2387 13.7268C14.2436 13.7268 17.2484 13.7268 20.2532 13.7268" stroke="#0D671C" stroke-width="3" stroke-linecap="round" stroke-linejoin="round"/>
<path d="M18.3422 2.81317C18.069 3.18629 17.7958 3.55941 17.5227 3.93252" stroke="#0D671C" stroke-width="3" stroke-linecap="round" stroke-linejoin="round"/>
<path d="M27.9024 5.05194C29.3425 5.98745 31.1804 8.02667 31.1804 9.94911C31.1804 11.5539 32.5462 12.9688 32.5462 14.5664C32.5462 16.0487 32.2928 11.5246 31.5901 10.2289C31.2553 9.61144 31.1019 8.88092 30.7707 8.27008C30.3878 7.56419 31.1237 9.61778 31.1956 9.94911C31.4828 11.2731 32.3812 12.7929 32.8801 14.0068C33.1832 14.7442 33.6389 15.724 33.6389 16.5253C33.6389 17.8281 33.9121 16.6919 33.9121 15.9656C33.9121 14.446 33.2726 12.9051 32.7587 11.4311C32.6588 11.1446 31.5872 9.12764 31.005 8.16806C30.0475 6.58959 31.4193 10.6343 31.7419 12.4521V12.4521C32.0025 13.9205 32.9111 17.0526 32.2124 18.4842C31.6764 19.5824 31.056 20.5292 30.6341 21.7178C30.121 23.1633 30.3609 22.7182 30.3609 21.4225C30.3609 21.0011 30.6018 17.1762 30.8465 17.427C31.1203 17.7075 31.2927 19.1495 31.5143 19.6035C31.8071 20.2035 32.3655 20.5615 32.7587 21.0649C33.0404 21.4256 32.8957 22.8354 32.4096 22.946C31.744 23.0976 30.9067 22.9616 30.2243 22.9616C29.5486 22.9616 28.8361 23.1112 28.3122 22.6817C27.9663 22.3983 29.7728 22.4184 30.0877 22.8217C31.4119 24.5173 32.5631 21.9632 33.0319 21.0027M33.0319 21.0027V21.0027C33.1555 20.7493 33.0319 20.7208 33.0319 21.0027V21.0027Z" stroke="#0D671C" stroke-width="3" stroke-linecap="round" stroke-linejoin="round"/>
<path d="M17.5228 4.21252C17.2801 5.28152 16.9143 6.64205 15.8838 7.22856C15.7142 7.32509 14.5483 8.2587 14.5483 7.99034C14.5483 7.66416 16.4288 5.89429 16.7033 5.33188" stroke="#0D671C" stroke-width="3" stroke-linecap="round" stroke-linejoin="round"/>
<path d="M10.4193 10.6486C10.4193 11.9653 9.91625 14.3054 11.1022 15.2503C12.1047 16.0491 12.8774 15.6622 13.3634 14.7218C14.0419 13.4088 14.2905 13.7535 15.4729 14.4264C16.3554 14.9286 17.6136 14.8461 18.6143 14.8461" stroke="#0D671C" stroke-width="3" stroke-linecap="round" stroke-linejoin="round"/>
<path d="M17.5227 5.33179C18.3216 5.92699 18.799 6.14337 19.2224 7.01082C19.36 7.29277 19.0581 8.13088 19.1617 8.01156C19.7857 7.29235 19.4439 6.74963 19.1617 6.1713" stroke="#0D671C" stroke-width="3" stroke-linecap="round" stroke-linejoin="round"/>
<path d="M12.0592 16.2457C10.8648 18.0627 9.75398 19.9079 8.62949 21.7181C7.5772 23.4121 8.37439 23.2417 9.87391 23.2417C11.7442 23.2417 11.5129 22.4178 11.5129 20.7231C11.5129 19.3227 12.6943 17.8408 14.2446 18.5466C15.799 19.2544 15.1596 18.4239 16.2933 17.5205C18.2376 15.9714 20.1918 19.1884 21.3469 20.1013C22.3789 20.9168 22.9348 21.2828 24.2303 21.2828C24.8291 21.2828 29.1363 20.9878 28.6313 20.3967C27.0251 18.5161 24.1867 17.7569 21.8629 17.6449C20.3374 17.5714 19.4685 16.884 18.0689 16.5256" stroke="#0D671C" stroke-width="3" stroke-linecap="round" stroke-linejoin="round"/>
<path d="M20.8003 21.5625C20.8003 21.8143 20.9998 26.2813 20.9217 26.3042C20.4994 26.4278 20.0335 25.927 19.7077 25.7601" stroke="#0D671C" stroke-width="3" stroke-linecap="round" stroke-linejoin="round"/>
<path d="M19.9801 12.8874C20.1297 16.0293 23.7143 16.2666 25.2917 18.3442C25.788 18.9979 25.5362 19.8833 24.7605 19.8833C23.8934 19.8833 22.6108 18.687 21.7557 18.3442C19.4184 17.4073 17.127 14.4187 14.2436 15.748C13.8678 15.9212 13.2679 17.2368 12.6653 16.7429C12.2266 16.3834 11.5351 16.5253 10.9656 16.5253" stroke="#0D671C" stroke-width="3" stroke-linecap="round" stroke-linejoin="round"/>
<path d="M13.6979 11.7678C13.9645 12.0494 14.8732 13.6163 14.5174 12.8872" stroke="#0D671C" stroke-width="3" stroke-linecap="round" stroke-linejoin="round"/>
<path d="M10.2041 3.51741C10.7704 3.5029 10.5569 3.77631 11.0624 3.51741" stroke="#0D671C" stroke-width="3" stroke-linecap="round" stroke-linejoin="round"/>
<path d="M19.5513 13.0919C22.2734 13.5 24.6247 11.3271 24.6247 9.24945" stroke="#0D671C" stroke-width="3" stroke-linecap="round" stroke-linejoin="round"/>
<path d="M18.8883 5.05194C20.903 5.05194 21.748 5.8845 23.1982 7.07299C23.9794 7.71318 24.6309 7.24263 24.9131 8.25453C25.1069 8.94913 25.4443 10.0081 25.4443 10.7886C25.4443 12.3989 24.7269 15.7634 26.4004 16.5253C29.4659 17.9211 27.041 12.4005 26.8708 11.1151C26.778 10.4141 27.0158 8.35467 26.4004 7.85032C26.1524 7.64707 26.2355 7.12898 26.2638 7.91251C26.2892 8.6166 26.4867 9.44995 26.7494 10.089C27.0112 10.726 27.0334 11.5214 27.2502 12.1878C27.648 13.4104 28.4865 14.5733 28.7223 15.8413C28.9571 17.1044 30.2263 20.4906 27.7814 19.0594C25.9314 17.9765 24.4063 15.6871 22.9847 14.069C22.507 13.5253 25.7836 15.157 26.1424 14.4887C27.3617 12.2176 28.7469 6.73939 25.4443 5.61162" stroke="#0D671C" stroke-width="3" stroke-linecap="round" stroke-linejoin="round"/>
<path d="M18.7876 2.93097C20.3212 2.93097 20.4939 3.58311 21.7406 3.94801C22.3995 4.14086 23.0873 4.77197 23.8045 4.77197" stroke="#0D671C" stroke-width="3" stroke-linecap="round" stroke-linejoin="round"/>
<path d="M27.6292 7.29041C27.6746 9.24393 28.5836 10.9906 28.995 12.8872C29.1941 13.805 29.403 14.8319 29.7538 15.6856C30.2496 16.8918 30.0877 15.1079 30.0877 14.5507C30.0877 13.2018 29.6332 12.0282 29.5414 10.7107C29.4622 9.57567 28.8866 7.58353 28.1148 6.79292C27.6938 6.36155 27.3827 6.02458 27.0829 5.48701C26.7485 4.88758 25.9697 4.85871 25.5046 4.42985C25.0071 3.97115 24.2943 4.37543 23.6835 4.19665C23.4017 4.11416 23.7553 3.8051 23.8656 3.7147C24.1031 3.52004 24.7761 3.96414 24.7761 3.65252C24.7761 2.99126 20.6528 3.71956 21.8927 3.15503C23.3478 2.49255 24.9905 3.59226 25.9295 4.55422C26.8645 5.51208 27.8573 6.23359 28.995 7.01057" stroke="#0D671C" stroke-width="3" stroke-linecap="round" stroke-linejoin="round"/>
<path d="M10.9664 22.9615C9.8255 22.9907 9.49911 23.2919 8.62931 23.801C8.3066 23.9899 7.69264 25.0802 7.20278 24.5784C7.11272 24.4861 8.04701 23.7575 7.9464 23.3968C7.76375 22.7419 6.39 24.5935 6.39 23.801C6.39 23.415 6.58748 22.6829 6.8859 21.9956C7.38986 20.8351 8.16473 19.7445 8.78107 18.6396V18.6396C8.92791 18.3763 8.08026 19.4953 7.90087 19.8833C7.61129 20.5096 7.68841 21.1536 7.68841 21.8422" stroke="#0D671C" stroke-width="3" stroke-linecap="round" stroke-linejoin="round"/>
<path d="M7.68813 28.2785C10.7249 28.2785 14.0765 28.1972 16.4901 30.1752C17.4269 30.9429 19.6055 30.3163 19.7074 32.1963C19.7821 33.5736 17.6039 33.0358 16.566 33.0358C15.0806 33.0358 14.1359 32.5844 12.7569 32.1807C11.5382 31.824 10.6368 30.7245 9.32712 30.5328C8.98606 30.4829 8.78967 30.4668 8.56833 30.1752C8.3775 29.9239 10.8765 30.0511 11.1482 30.0975C12.2164 30.2799 13.2086 30.7738 14.2441 31.0769C15.3823 31.4101 18.7058 32.4761 17.5221 32.4761" stroke="#0D671C" stroke-width="3" stroke-linecap="round" stroke-linejoin="round"/>
</svg>
