<svg width="50" height="50" viewBox="0 0 50 50" fill="none" xmlns="http://www.w3.org/2000/svg">
<path d="M3.92604 4.71628L1.27119 3.94737L1.11346 7.76434C0.425157 24.421 8.735 40.165 22.8748 48.9959C22.8789 48.9984 22.884 48.9986 22.8882 48.9964C38.911 40.5531 47.3371 22.4614 43.4893 4.76354L43.2203 3.52632L43.1106 3.94737L42.6855 4.09689C35.8343 6.50648 28.233 5.34524 22.4138 1.00002L22.4138 1.00002C17.2274 5.18251 10.3258 6.56982 3.92604 4.71628Z" fill="url(#paint0_linear)" stroke="#785A22"/>
<path d="M20.9492 28.2148C20.9492 28.3711 20.9557 28.5208 20.9688 28.6641C20.9688 28.7943 20.9688 28.9375 20.9688 29.0938C20.9818 29.25 20.9753 29.4062 20.9492 29.5625C20.7669 29.4193 20.5456 29.3021 20.2852 29.2109C20.0378 29.1328 19.6667 29.0807 19.1719 29.0547C18.3906 29.0156 17.6094 29.0677 16.8281 29.2109C16.0599 29.3542 15.3568 29.5234 14.7188 29.7188C14.5885 29.7578 14.4583 29.7383 14.3281 29.6602C14.1979 29.5951 14.0677 29.4844 13.9375 29.3281C13.8203 29.1849 13.7096 29.0156 13.6055 28.8203C13.5143 28.625 13.4427 28.4232 13.3906 28.2148C13.3385 28.0065 13.306 27.7721 13.293 27.5117C13.2799 27.2513 13.2995 26.9779 13.3516 26.6914C13.4167 26.3919 13.5339 26.0859 13.7031 25.7734C13.8724 25.4609 14.1133 25.1484 14.4258 24.8359C14.7122 24.5625 15.1159 24.25 15.6367 23.8984C16.1706 23.5339 16.6979 23.1237 17.2188 22.668C17.7526 22.2122 18.2148 21.7044 18.6055 21.1445C18.9961 20.5846 19.2044 19.9596 19.2305 19.2695C19.2826 18.2799 19.1523 17.5443 18.8398 17.0625C18.5273 16.5677 18.1237 16.3008 17.6289 16.2617C16.9648 16.2096 16.418 16.457 15.9883 17.0039C15.5716 17.5508 15.2396 18.3646 14.9922 19.4453C14.9271 19.4844 14.8294 19.4844 14.6992 19.4453C14.569 19.4062 14.4453 19.3542 14.3281 19.2891C14.1849 19.224 14.0352 19.1328 13.8789 19.0156C13.7357 18.9115 13.612 18.7747 13.5078 18.6055C13.4167 18.4232 13.3776 18.2409 13.3906 18.0586C13.4036 17.8242 13.5013 17.5117 13.6836 17.1211C13.8659 16.7305 14.1393 16.3594 14.5039 16.0078C14.8815 15.6432 15.3503 15.3438 15.9102 15.1094C16.4831 14.862 17.1667 14.7708 17.9609 14.8359C18.4036 14.875 18.8203 15.0052 19.2109 15.2266C19.6016 15.4349 19.9401 15.7344 20.2266 16.125C20.513 16.5156 20.7344 16.9909 20.8906 17.5508C21.0469 18.0977 21.1055 18.7292 21.0664 19.4453C21.0273 20.2005 20.832 20.8776 20.4805 21.4766C20.1419 22.0625 19.7513 22.5768 19.3086 23.0195C18.8789 23.4622 18.4492 23.8333 18.0195 24.1328C17.5898 24.4323 17.2643 24.6667 17.043 24.8359C16.7695 25.0443 16.5091 25.2461 16.2617 25.4414C16.0143 25.6237 15.806 25.832 15.6367 26.0664C15.4805 26.2878 15.3763 26.5352 15.3242 26.8086C15.2721 27.082 15.2982 27.401 15.4023 27.7656C15.7148 27.6484 16.125 27.5247 16.6328 27.3945C17.1536 27.2513 17.7331 27.1536 18.3711 27.1016C18.8398 27.0755 19.2305 27.069 19.543 27.082C19.8555 27.082 20.1094 27.1211 20.3047 27.1992C20.5 27.2643 20.6432 27.3815 20.7344 27.5508C20.8385 27.707 20.9102 27.9284 20.9492 28.2148ZM23.9766 22.4531C23.651 22.4531 23.3451 22.3685 23.0586 22.1992C22.7721 22.0299 22.5247 21.7891 22.3164 21.4766C22.1211 21.1641 21.9714 20.793 21.8672 20.3633C21.763 19.9206 21.7305 19.4388 21.7695 18.918C21.8216 18.332 21.9388 17.8307 22.1211 17.4141C22.3034 16.9844 22.4987 16.6328 22.707 16.3594C22.9154 16.0859 23.1042 15.8841 23.2734 15.7539C23.4557 15.6237 23.5664 15.5456 23.6055 15.5195C23.6966 15.4805 23.7747 15.474 23.8398 15.5C23.918 15.513 23.9896 15.5326 24.0547 15.5586C24.0677 15.5716 24.0872 15.6042 24.1133 15.6562C24.1393 15.6953 24.1589 15.7539 24.1719 15.832C24.1849 15.8971 24.1914 15.9883 24.1914 16.1055C24.2565 15.9622 24.3281 15.8581 24.4062 15.793C24.4974 15.7148 24.5951 15.6562 24.6992 15.6172C24.8034 15.5651 24.9206 15.5391 25.0508 15.5391C25.1289 15.526 25.2656 15.5911 25.4609 15.7344C25.6562 15.8776 25.8451 16.1055 26.0273 16.418C26.2096 16.7174 26.3659 17.1081 26.4961 17.5898C26.6263 18.0716 26.6719 18.651 26.6328 19.3281C26.5677 20.2266 26.2943 20.9688 25.8125 21.5547C25.3438 22.1406 24.7318 22.4401 23.9766 22.4531ZM23.1172 19.0352C23.1042 19.3346 23.1107 19.6276 23.1367 19.9141C23.1758 20.1875 23.2409 20.4349 23.332 20.6562C23.4232 20.8776 23.5339 21.0534 23.6641 21.1836C23.7943 21.3138 23.9505 21.3724 24.1328 21.3594C24.3151 21.3464 24.4779 21.2747 24.6211 21.1445C24.7773 21.0013 24.9076 20.8255 25.0117 20.6172C25.1289 20.3958 25.2201 20.1549 25.2852 19.8945C25.3633 19.6211 25.4154 19.3477 25.4414 19.0742C25.4544 18.8268 25.4479 18.5729 25.4219 18.3125C25.3958 18.0391 25.3503 17.7982 25.2852 17.5898C25.2331 17.3685 25.168 17.1862 25.0898 17.043C25.0117 16.8997 24.9271 16.8281 24.8359 16.8281C24.7188 16.8411 24.6016 16.8867 24.4844 16.9648C24.3802 17.0299 24.2695 17.1341 24.1523 17.2773C24.0352 17.4076 23.9245 17.6029 23.8203 17.8633C23.8073 17.8242 23.7943 17.7656 23.7812 17.6875C23.7682 17.6224 23.7617 17.5312 23.7617 17.4141C23.7617 17.2839 23.7747 17.1081 23.8008 16.8867C23.6445 17.069 23.5208 17.2839 23.4297 17.5312C23.3516 17.7656 23.2865 17.9935 23.2344 18.2148C23.1823 18.4753 23.1432 18.7487 23.1172 19.0352ZM31.0664 22.1016C31.1576 22.1016 31.3008 22.1732 31.4961 22.3164C31.6914 22.4466 31.8802 22.668 32.0625 22.9805C32.2578 23.2799 32.4141 23.6706 32.5312 24.1523C32.6615 24.6211 32.707 25.194 32.668 25.8711C32.6029 26.7956 32.3294 27.5443 31.8477 28.1172C31.3659 28.7031 30.7539 29.0091 30.0117 29.0352C29.6862 29.0352 29.3802 28.944 29.0938 28.7617C28.8073 28.5924 28.5599 28.3516 28.3516 28.0391C28.1562 27.7266 28.0065 27.3555 27.9023 26.9258C27.7982 26.4831 27.7721 26.0013 27.8242 25.4805C27.8633 24.8945 27.974 24.3932 28.1562 23.9766C28.3385 23.5469 28.5339 23.1953 28.7422 22.9219C28.9505 22.6484 29.1458 22.4466 29.3281 22.3164C29.5104 22.1862 29.6211 22.1146 29.6602 22.1016C29.7383 22.0625 29.8099 22.056 29.875 22.082C29.9531 22.0951 30.0247 22.1146 30.0898 22.1406C30.1029 22.1406 30.1224 22.1667 30.1484 22.2188C30.1745 22.2578 30.194 22.3164 30.207 22.3945C30.2201 22.4596 30.2266 22.5508 30.2266 22.668C30.2917 22.5378 30.3698 22.4336 30.4609 22.3555C30.5521 22.2773 30.6432 22.2188 30.7344 22.1797C30.8385 22.1276 30.9492 22.1016 31.0664 22.1016ZM31.4766 25.6562C31.4896 25.4089 31.4831 25.1549 31.457 24.8945C31.444 24.6211 31.4049 24.3737 31.3398 24.1523C31.2878 23.931 31.2161 23.7487 31.125 23.6055C31.0469 23.4622 30.9622 23.3906 30.8711 23.3906C30.7539 23.4167 30.6367 23.4688 30.5195 23.5469C30.4154 23.612 30.3047 23.7161 30.1875 23.8594C30.0703 23.9896 29.9596 24.1849 29.8555 24.4453C29.8424 24.4062 29.8294 24.3477 29.8164 24.2695C29.8034 24.2044 29.7969 24.1068 29.7969 23.9766C29.7969 23.8464 29.8099 23.6706 29.8359 23.4492C29.6797 23.6315 29.556 23.8464 29.4648 24.0938C29.3867 24.3411 29.3216 24.5755 29.2695 24.7969C29.2174 25.0573 29.1784 25.3307 29.1523 25.6172C29.1393 25.9167 29.1458 26.2096 29.1719 26.4961C29.2109 26.7695 29.2695 27.0169 29.3477 27.2383C29.4388 27.4466 29.5495 27.6159 29.6797 27.7461C29.8229 27.8763 29.9857 27.9349 30.168 27.9219C30.3503 27.9219 30.513 27.8503 30.6562 27.707C30.8125 27.5638 30.9427 27.388 31.0469 27.1797C31.1641 26.9583 31.2552 26.7174 31.3203 26.457C31.3984 26.1836 31.4505 25.9167 31.4766 25.6562ZM31.9062 15.5C31.1901 16.6458 30.5651 17.6745 30.0312 18.5859C29.4974 19.4974 29.0482 20.2786 28.6836 20.9297C28.2539 21.6849 27.8828 22.3555 27.5703 22.9414C27.1536 23.6445 26.7695 24.3346 26.418 25.0117C26.0664 25.6758 25.7669 26.2878 25.5195 26.8477C25.2721 27.4076 25.0833 27.9023 24.9531 28.332C24.8359 28.7617 24.8034 29.0807 24.8555 29.2891C24.6341 29.3672 24.3867 29.3932 24.1133 29.3672C23.8398 29.3542 23.6315 29.2174 23.4883 28.957C23.3841 28.7747 23.3711 28.5599 23.4492 28.3125C23.5273 28.0651 23.638 27.7982 23.7812 27.5117C23.8464 27.3815 23.9831 27.1081 24.1914 26.6914C24.4128 26.2617 24.6732 25.7474 24.9727 25.1484C25.2852 24.5495 25.6237 23.9049 25.9883 23.2148C26.3659 22.5247 26.737 21.8477 27.1016 21.1836C27.375 20.6628 27.681 20.0898 28.0195 19.4648C28.306 18.931 28.638 18.3255 29.0156 17.6484C29.4062 16.9583 29.8294 16.2227 30.2852 15.4414C30.4544 15.3372 30.6302 15.2786 30.8125 15.2656C30.9948 15.2526 31.1706 15.2656 31.3398 15.3047C31.5221 15.3568 31.7109 15.4219 31.9062 15.5Z" fill="#FFFBFB"/>
<defs>
<linearGradient id="paint0_linear" x1="25" y1="1" x2="30.8586" y2="49.009" gradientUnits="userSpaceOnUse">
<stop offset="0.336805" stop-color="#FFC806"/>
<stop offset="1" stop-color="#FFAD0F" stop-opacity="0.77"/>
</linearGradient>
</defs>
</svg>